<svg width="17" height="17" viewBox="0 0 17 17" fill="none" xmlns="http://www.w3.org/2000/svg">
    <path d="M6.597 8.696A1.334 1.334 0 0 1 8.483 6.81l.017.017.017-.017a1.334 1.334 0 0 1 1.886 1.886L8.517 10.58l-.017-.017-.017.017-1.886-1.885z" fill="#000" fill-opacity=".8"/>
    <path fill-rule="evenodd" clip-rule="evenodd" d="M2.5 3.167a2 2 0 0 1 2-2h8a2 2 0 0 1 2 2v10.667a2 2 0 0 1-2 2h-8a2 2 0 0 1-2-2V3.167zm2-.667h8a.667.667 0 0 1 .667.667v10.667a.667.667 0 0 1-.667.666h-8a.667.667 0 0 1-.667-.666V3.167A.667.667 0 0 1 4.5 2.5z" fill="#000" fill-opacity=".8"/>
</svg>
