<svg width="16" height="16" viewBox="0 0 16 16" fill="none" xmlns="http://www.w3.org/2000/svg">
<path d="M1.59998 12.0543L1.60012 4.41464C1.60013 3.84506 2.15174 3.43832 2.69588 3.60666V3.60666C4.47721 4.15778 6.40307 4.15778 8.1844 3.60666C10.1316 3.00423 12.2459 3.06189 14.1516 3.76942L14.4001 3.86168L14.4 12.3833C14.4 12.5117 14.2719 12.6008 14.1515 12.5561V12.5561C12.2457 11.8486 10.1315 11.7909 8.18424 12.3933C6.40291 12.9444 4.47704 12.9444 2.69571 12.3933L1.59998 12.0543Z" stroke="black" stroke-width="1.5" stroke-linejoin="round"/>
<path d="M9.59998 7.99333C9.59998 8.87698 8.88363 9.59333 7.99998 9.59333C7.11632 9.59333 6.39998 8.87698 6.39998 7.99333C6.39998 7.10967 7.11632 6.39333 7.99998 6.39333C8.88363 6.39333 9.59998 7.10967 9.59998 7.99333Z" stroke="black" stroke-width="1.5" stroke-linejoin="round"/>
</svg>
