<svg width="16" height="17" viewBox="0 0 16 17" fill="none" xmlns="http://www.w3.org/2000/svg">
    <path d="M1 14.5h14v1H1v-1zM12.25 6H4a1 1 0 0 0-1 1v4a2.503 2.503 0 0 0 2.5 2.5h4A2.503 2.503 0 0 0 12 11v-.5h.25a2.25 2.25 0 0 0 0-4.5zM11 11a1.502 1.502 0 0 1-1.5 1.5h-4A1.502 1.502 0 0 1 4 11V7h7v4zm1.25-1.5H12V7h.25a1.25 1.25 0 0 1 0 2.5zM9.5 5h-1v-.073a.994.994 0 0 0-.553-.894l-1.342-.671A1.99 1.99 0 0 1 5.5 1.573V1h1v.573a.995.995 0 0 0 .553.894l1.342.671A1.99 1.99 0 0 1 9.5 4.927V5z" fill="#000" fill-opacity=".8"/>
</svg>
