<svg width="21" height="20" viewBox="0 0 21 20" fill="none" xmlns="http://www.w3.org/2000/svg">
    <g clip-path="url(#jjy6n75s6a)">
        <path d="M10.494 1.49C5.8 1.49 1.99 5.3 1.99 9.994s3.811 8.504 8.504 8.504 8.504-3.812 8.504-8.504c0-4.693-3.812-8.504-8.504-8.504z" fill="#FBB701"/>
        <path d="M10.494 0C4.982 0 .5 4.482.5 9.994s4.482 9.994 9.994 9.994 9.994-4.482 9.994-9.994S16.018 0 10.494 0zm0 18.51C5.8 18.51 1.99 14.7 1.99 10.006S5.8 1.49 10.494 1.49s8.504 3.811 8.504 8.504-3.812 8.516-8.504 8.516z" fill="#FFDF59"/>
        <path d="M10.742 14.823c-2.42 0-4.035-1.39-4.519-3.513.224 2.57 1.924 4.308 4.63 4.32 2.521-.012 4.11-1.49 4.222-3.65h-.248c-.41 1.726-1.887 2.843-4.085 2.843zM12.53 8.604c-.162-.944-.77-1.59-1.75-1.59-1.242.013-2.074 1.056-2.074 2.856 0 .447.05.844.137 1.192-.013-.124-.013-.248-.013-.385 0-1.8.82-2.843 2.073-2.855.981.012 1.59.658 1.75 1.589h2.434a4.607 4.607 0 0 0-.124-.845v.038H12.53z" fill="#D3950B"/>
        <path d="M10.742 14.823c2.197-.012 3.675-1.13 4.11-2.843.061-.26.099-.521.123-.807H12.53c-.162 1.006-.844 1.577-1.75 1.577-.957 0-1.652-.608-1.925-1.7a4.916 4.916 0 0 1-.137-1.193c0-1.8.82-2.842 2.074-2.855.98.013 1.589.658 1.75 1.59h2.433v-.038c-.124-2.16-1.775-3.575-4.22-3.575-2.88 0-4.668 1.998-4.668 4.903 0 .497.05.969.149 1.416.471 2.135 2.085 3.525 4.506 3.525z" fill="#FFE055"/>
    </g>
    <defs>
        <clipPath id="jjy6n75s6a">
            <path fill="#fff" transform="translate(.5)" d="M0 0h20v20H0z"/>
        </clipPath>
    </defs>
</svg>
