<svg width="20" height="19" viewBox="0 0 20 19" fill="none" xmlns="http://www.w3.org/2000/svg">
<g filter="url(#filter0_d_4_65)">
<path d="M14.0312 2.75C14.4863 2.74962 14.9368 2.84008 15.3565 3.01609C15.7761 3.1921 16.1564 3.45011 16.475 3.775C17.1315 4.44149 17.4995 5.33947 17.4995 6.275C17.4995 7.21053 17.1315 8.10851 16.475 8.775L9.99998 15.3313L3.52498 8.775C2.86847 8.10851 2.50047 7.21053 2.50047 6.275C2.50047 5.33947 2.86847 4.44149 3.52498 3.775C3.84379 3.45035 4.22409 3.19247 4.64368 3.01643C5.06326 2.8404 5.51371 2.74973 5.96873 2.74973C6.42375 2.74973 6.8742 2.8404 7.29379 3.01643C7.71337 3.19247 8.09367 3.45035 8.41248 3.775L9.99998 5.4L11.5812 3.7875C11.8989 3.45874 12.2796 3.19741 12.7005 3.01915C13.1215 2.84089 13.5741 2.74935 14.0312 2.75ZM14.0312 1.5C13.4097 1.49947 12.7944 1.62304 12.2213 1.86344C11.6482 2.10384 11.1289 2.45625 10.6937 2.9L9.99998 3.6L9.30623 2.9C8.87057 2.45705 8.3511 2.10526 7.7781 1.86512C7.20509 1.62498 6.59002 1.50131 5.96873 1.50131C5.34744 1.50131 4.73237 1.62498 4.15936 1.86512C3.58636 2.10526 3.06689 2.45705 2.63123 2.9C1.74491 3.80227 1.24829 5.01648 1.24829 6.28125C1.24829 7.54603 1.74491 8.76024 2.63123 9.6625L9.99998 17.125L17.3687 9.6625C18.2551 8.76024 18.7517 7.54603 18.7517 6.28125C18.7517 5.01648 18.2551 3.80227 17.3687 2.9C16.9332 2.45682 16.4138 2.10478 15.8407 1.86441C15.2677 1.62405 14.6526 1.50017 14.0312 1.5Z" fill="white"/>
</g>
<defs>
<filter id="filter0_d_4_65" x="-0.751709" y="0.5" width="21.5034" height="19.625" filterUnits="userSpaceOnUse" color-interpolation-filters="sRGB">
<feFlood flood-opacity="0" result="BackgroundImageFix"/>
<feColorMatrix in="SourceAlpha" type="matrix" values="0 0 0 0 0 0 0 0 0 0 0 0 0 0 0 0 0 0 127 0" result="hardAlpha"/>
<feOffset dy="1"/>
<feGaussianBlur stdDeviation="1"/>
<feComposite in2="hardAlpha" operator="out"/>
<feColorMatrix type="matrix" values="0 0 0 0 0 0 0 0 0 0 0 0 0 0 0 0 0 0 0.08 0"/>
<feBlend mode="normal" in2="BackgroundImageFix" result="effect1_dropShadow_4_65"/>
<feBlend mode="normal" in="SourceGraphic" in2="effect1_dropShadow_4_65" result="shape"/>
</filter>
</defs>
</svg>
