<svg width="20" height="20" viewBox="0 0 20 20" fill="none" xmlns="http://www.w3.org/2000/svg">
    <path fill="transform" d="M0 0h20v20H0z"/>
    <path d="M18.281 4.225a3.75 3.75 0 0 0-5.312 0l.887.888A2.506 2.506 0 1 1 17.4 8.656l-5 5a2.504 2.504 0 0 1-3.544-3.537l.881-.888-.88-.887-.888.887a3.75 3.75 0 0 0 0 5.313 3.75 3.75 0 0 0 2.656 1.081 3.75 3.75 0 0 0 2.669-1.1l5-5a3.75 3.75 0 0 0-.013-5.3z" fill="#8986ff"/>
    <path d="M2.619 15.512a2.5 2.5 0 0 1 0-3.543l5-5a2.5 2.5 0 0 1 3.543 0 2.463 2.463 0 0 1 .713 1.78 2.5 2.5 0 0 1-.731 1.782l-1.325 1.344.887.887 1.325-1.325A3.76 3.76 0 0 0 6.713 6.12l-5 5a3.75 3.75 0 0 0 0 5.318A3.75 3.75 0 0 0 4.375 17.5a3.794 3.794 0 0 0 2.675-1.1l-.887-.888a2.499 2.499 0 0 1-3.544 0z" fill="#8986ff"/>
</svg>
