<svg width="24" height="24" viewBox="0 0 24 24" fill="none" xmlns="http://www.w3.org/2000/svg">
<rect width="24" height="24" fill="white"/>
<path d="M19.5 4.5V6.1275L4.23002 8.9025C3.88058 8.96639 3.56516 9.15223 3.33992 9.42692C3.11467 9.7016 2.99422 10.0473 3.00002 10.4025V13.6575C2.99422 14.0127 3.11467 14.3584 3.33992 14.6331C3.56516 14.9078 3.88058 15.0936 4.23002 15.1575L6.00002 15.42V18C6.00002 18.3978 6.15805 18.7794 6.43936 19.0607C6.72066 19.342 7.10219 19.5 7.50002 19.5H13.5C13.8978 19.5 14.2794 19.342 14.5607 19.0607C14.842 18.7794 15 18.3978 15 18V17.055L19.5 17.8725V19.5H21V4.5H19.5ZM13.5 18H7.50002V15.6975L13.5 16.785V18ZM4.50002 13.6275V10.3725L19.5 7.65V16.35L4.50002 13.6275Z" fill="black" fill-opacity="0.88"/>
</svg>
