<svg width="24" height="24" viewBox="0 0 24 24" fill="none" xmlns="http://www.w3.org/2000/svg">
<rect width="24" height="24" fill="white"/>
<path d="M19.9395 12.75L16.5 16.1895L12.75 12.4395C12.4685 12.1585 12.0869 12.0006 11.6891 12.0006C11.2913 12.0006 10.9098 12.1585 10.6282 12.4395L7.18875 15.8775C6.90786 16.1592 6.75013 16.5407 6.75013 16.9384C6.75013 17.3362 6.90786 17.7177 7.18875 17.9993L10.1888 20.9993H4.5V22.4993H12C12.1483 22.4993 12.2933 22.4553 12.4166 22.3728C12.5399 22.2904 12.636 22.1733 12.6928 22.0363C12.7495 21.8993 12.7644 21.7485 12.7354 21.603C12.7065 21.4576 12.6351 21.3239 12.5303 21.219L8.25 16.9388L11.6888 13.5L15.9697 17.7803C16.1104 17.9209 16.3011 17.9999 16.5 17.9999C16.6989 17.9999 16.8896 17.9209 17.0303 17.7803L21 13.8105L19.9395 12.75Z" fill="black" fill-opacity="0.88"/>
<path d="M16.125 12.75C15.6058 12.75 15.0983 12.596 14.6666 12.3076C14.235 12.0192 13.8985 11.6092 13.6998 11.1295C13.5011 10.6499 13.4492 10.1221 13.5504 9.61289C13.6517 9.10369 13.9017 8.63596 14.2688 8.26885C14.636 7.90173 15.1037 7.65173 15.6129 7.55044C16.1221 7.44915 16.6499 7.50114 17.1295 7.69982C17.6092 7.8985 18.0192 8.23495 18.3076 8.66663C18.596 9.09831 18.75 9.60583 18.75 10.125C18.7492 10.821 18.4724 11.4882 17.9803 11.9803C17.4882 12.4724 16.821 12.7492 16.125 12.75ZM16.125 9C15.9025 9 15.685 9.06598 15.5 9.1896C15.315 9.31321 15.1708 9.48892 15.0856 9.69448C15.0005 9.90005 14.9782 10.1262 15.0216 10.3445C15.065 10.5627 15.1722 10.7632 15.3295 10.9205C15.4868 11.0778 15.6873 11.185 15.9055 11.2284C16.1238 11.2718 16.35 11.2495 16.5555 11.1644C16.7611 11.0792 16.9368 10.935 17.0604 10.75C17.184 10.565 17.25 10.3475 17.25 10.125C17.2496 9.82675 17.131 9.54084 16.9201 9.32994C16.7092 9.11905 16.4232 9.0004 16.125 9Z" fill="black" fill-opacity="0.88"/>
<path d="M3 7.94845L12 3.10195L21.3945 8.1607L22.1055 6.8392L12.3555 1.5892C12.2462 1.53064 12.124 1.5 12 1.5C11.876 1.5 11.7538 1.53064 11.6445 1.5892L1.8945 6.8392C1.77519 6.90343 1.67551 6.99878 1.60604 7.11512C1.53658 7.23146 1.49994 7.36445 1.5 7.49995V22.5H3V7.94845Z" fill="black" fill-opacity="0.88"/>
</svg>
