<svg width="16" height="16" viewBox="0 0 16 16" fill="none" xmlns="http://www.w3.org/2000/svg">
<path d="M1 14H15V15H1V14ZM12.25 5.5H4C3.73486 5.50026 3.48066 5.60571 3.29319 5.79319C3.10571 5.98066 3.00026 6.23486 3 6.5V10.5C3.00079 11.1628 3.26444 11.7982 3.73311 12.2669C4.20178 12.7356 4.8372 12.9992 5.5 13H9.5C10.1628 12.9992 10.7982 12.7356 11.2669 12.2669C11.7356 11.7982 11.9992 11.1628 12 10.5V10H12.25C12.8467 10 13.419 9.76295 13.841 9.34099C14.2629 8.91903 14.5 8.34674 14.5 7.75C14.5 7.15326 14.2629 6.58097 13.841 6.15901C13.419 5.73705 12.8467 5.5 12.25 5.5ZM11 10.5C10.9996 10.8977 10.8414 11.279 10.5602 11.5602C10.279 11.8414 9.8977 11.9996 9.5 12H5.5C5.1023 11.9996 4.721 11.8414 4.43978 11.5602C4.15856 11.279 4.0004 10.8977 4 10.5V6.5H11V10.5ZM12.25 9H12V6.5H12.25C12.5815 6.5 12.8995 6.6317 13.1339 6.86612C13.3683 7.10054 13.5 7.41848 13.5 7.75C13.5 8.08152 13.3683 8.39946 13.1339 8.63388C12.8995 8.8683 12.5815 9 12.25 9ZM9.5 4.5H8.5V4.427C8.50073 4.24116 8.44936 4.05884 8.3517 3.90072C8.25403 3.74261 8.114 3.61504 7.9475 3.5325L6.605 2.862C6.2721 2.69677 5.99214 2.44161 5.79684 2.12541C5.60154 1.80922 5.49871 1.44464 5.5 1.073V0.5H6.5V1.073C6.49938 1.25882 6.55081 1.44109 6.64846 1.59918C6.7461 1.75727 6.88607 1.88486 7.0525 1.9675L8.3945 2.638C8.72745 2.8032 9.00749 3.05835 9.20287 3.37454C9.39826 3.69073 9.50119 4.05532 9.5 4.427V4.5Z" fill="#8986FF" fill-opacity="0.8"/>
</svg>
