<svg width="16" height="16" viewBox="0 0 16 16" fill="none" xmlns="http://www.w3.org/2000/svg">
<path d="M6.75095 2.707C6.52174 3.68561 6.49057 4.70018 6.65927 5.69102C6.82797 6.68186 7.19313 7.62895 7.73327 8.47657C8.27341 9.32419 8.97762 10.0552 9.80447 10.6267C10.6313 11.1981 11.5641 11.5984 12.5479 11.804C12.0307 12.3392 11.4112 12.765 10.7262 13.0562C10.0412 13.3474 9.30474 13.4979 8.56045 13.499C8.49145 13.499 8.42145 13.5015 8.35145 13.499C7.05563 13.4533 5.81676 12.9552 4.85005 12.0911C3.88333 11.227 3.24988 10.0515 3.05972 8.76893C2.86957 7.48634 3.13473 6.17765 3.80915 5.07024C4.48357 3.96282 5.52462 3.12665 6.75145 2.707M7.48995 1.5C7.4606 1.5001 7.43132 1.50278 7.40245 1.508C5.81076 1.79126 4.38012 2.65334 3.38599 3.92826C2.39187 5.20319 1.90453 6.80081 2.01781 8.41354C2.1311 10.0263 2.83699 11.5401 3.99959 12.6635C5.16219 13.7869 6.69929 14.4405 8.31495 14.4985C8.39695 14.5015 8.47895 14.4985 8.55995 14.4985C9.60942 14.4992 10.6436 14.2471 11.5751 13.7637C12.5066 13.2802 13.308 12.5796 13.9114 11.721C13.9603 11.647 13.9889 11.5614 13.9942 11.4729C13.9995 11.3844 13.9814 11.296 13.9417 11.2167C13.902 11.1373 13.8422 11.0699 13.7681 11.021C13.6941 10.9722 13.6085 10.9437 13.5199 10.9385C12.5211 10.8508 11.5557 10.5347 10.6985 10.0144C9.84135 9.49418 9.11527 8.7838 8.5764 7.9382C8.03753 7.09259 7.70032 6.1344 7.59083 5.13768C7.48134 4.14097 7.6025 3.13242 7.94495 2.19C7.97408 2.11457 7.98476 2.03326 7.97611 1.95286C7.96746 1.87246 7.93972 1.79529 7.8952 1.72778C7.85069 1.66028 7.79068 1.60438 7.72019 1.56476C7.6497 1.52514 7.57076 1.50294 7.48995 1.5Z" fill="#8986FF" fill-opacity="0.8"/>
</svg>
