<svg width="20" height="20" viewBox="0 0 20 20" fill="none" xmlns="http://www.w3.org/2000/svg">
<path d="M1.25 13.75H18.75V15H1.25V13.75ZM1.25 16.25H18.75V17.5H1.25V16.25ZM15 6.25C14.7528 6.25 14.5111 6.32331 14.3055 6.46066C14.1 6.59802 13.9398 6.79324 13.8452 7.02165C13.7505 7.25005 13.7258 7.50139 13.774 7.74386C13.8222 7.98634 13.9413 8.20907 14.1161 8.38388C14.2909 8.5587 14.5137 8.67775 14.7561 8.72598C14.9986 8.77421 15.2499 8.74946 15.4784 8.65485C15.7068 8.56024 15.902 8.40003 16.0393 8.19446C16.1767 7.9889 16.25 7.74723 16.25 7.5C16.25 7.16848 16.1183 6.85054 15.8839 6.61612C15.6495 6.3817 15.3315 6.25 15 6.25ZM10 10C9.50555 10 9.0222 9.85338 8.61107 9.57868C8.19995 9.30397 7.87952 8.91353 7.6903 8.45671C7.50108 7.99989 7.45157 7.49723 7.54804 7.01228C7.6445 6.52732 7.8826 6.08187 8.23223 5.73223C8.58186 5.3826 9.02732 5.1445 9.51227 5.04804C9.99723 4.95157 10.4999 5.00108 10.9567 5.1903C11.4135 5.37952 11.804 5.69995 12.0787 6.11108C12.3534 6.5222 12.5 7.00555 12.5 7.5C12.4992 8.16279 12.2355 8.79819 11.7669 9.26685C11.2982 9.73552 10.6628 9.99917 10 10V10ZM10 6.25C9.75277 6.25 9.5111 6.32331 9.30554 6.46066C9.09998 6.59802 8.93976 6.79324 8.84515 7.02165C8.75054 7.25005 8.72579 7.50139 8.77402 7.74386C8.82225 7.98634 8.9413 8.20907 9.11612 8.38388C9.29093 8.5587 9.51366 8.67775 9.75614 8.72598C9.99861 8.77421 10.2499 8.74946 10.4784 8.65485C10.7068 8.56024 10.902 8.40003 11.0393 8.19446C11.1767 7.9889 11.25 7.74723 11.25 7.5C11.2497 7.16858 11.1179 6.85083 10.8835 6.61648C10.6492 6.38213 10.3314 6.25033 10 6.25ZM5 6.25C4.75277 6.25 4.5111 6.32331 4.30554 6.46066C4.09998 6.59802 3.93976 6.79324 3.84515 7.02165C3.75054 7.25005 3.72579 7.50139 3.77402 7.74386C3.82225 7.98634 3.9413 8.20907 4.11612 8.38388C4.29093 8.5587 4.51366 8.67775 4.75614 8.72598C4.99861 8.77421 5.24995 8.74946 5.47835 8.65485C5.70676 8.56024 5.90199 8.40003 6.03934 8.19446C6.17669 7.9889 6.25 7.74723 6.25 7.5C6.25 7.16848 6.1183 6.85054 5.88388 6.61612C5.64946 6.3817 5.33152 6.25 5 6.25Z" fill="#8986FF"/>
<path d="M17.5 12.5H2.5C2.16873 12.4992 1.85127 12.3672 1.61703 12.133C1.38279 11.8987 1.25083 11.5813 1.25 11.25V3.75C1.25083 3.41873 1.38279 3.10127 1.61703 2.86703C1.85127 2.63279 2.16873 2.50083 2.5 2.5H17.5C17.8313 2.50083 18.1487 2.63279 18.383 2.86703C18.6172 3.10127 18.7492 3.41873 18.75 3.75V11.25C18.7495 11.5814 18.6176 11.899 18.3833 12.1333C18.149 12.3676 17.8314 12.4995 17.5 12.5ZM17.5 3.75H2.5V11.25H17.5V3.75Z" fill="#8986FF"/>
</svg>
