<svg width="20" height="20" viewBox="0 0 20 20" fill="none" xmlns="http://www.w3.org/2000/svg">
<path d="M18.3844 11.875L17.3125 10.8031C17.4344 10.5529 17.4985 10.2784 17.5 10C17.5 9.62916 17.39 9.26665 17.184 8.95831C16.978 8.64996 16.6851 8.40964 16.3425 8.26773C15.9999 8.12581 15.6229 8.08868 15.2592 8.16103C14.8955 8.23338 14.5614 8.41195 14.2992 8.67418C14.037 8.9364 13.8584 9.27049 13.786 9.63421C13.7137 9.99792 13.7508 10.3749 13.8927 10.7175C14.0346 11.0601 14.275 11.353 14.5833 11.559C14.8916 11.765 15.2542 11.875 15.625 11.875C15.9036 11.8736 16.1783 11.8095 16.4287 11.6875L17.5 12.7588V17.5H13.75V15.625C13.7487 14.4651 13.2873 13.3531 12.4671 12.5329C11.6469 11.7127 10.5349 11.2513 9.375 11.25H5.625C4.46508 11.2513 3.35305 11.7127 2.53287 12.5329C1.71268 13.3531 1.25132 14.4651 1.25 15.625V18.75H18.75V12.7588C18.7505 12.5946 18.7184 12.432 18.6556 12.2803C18.5929 12.1286 18.5007 11.9909 18.3844 11.875ZM2.5 15.625C2.50099 14.7965 2.83055 14.0022 3.41639 13.4164C4.00222 12.8306 4.7965 12.501 5.625 12.5H9.375C10.2035 12.501 10.9978 12.8306 11.5836 13.4164C12.1694 14.0022 12.499 14.7965 12.5 15.625V17.5H2.5V15.625Z" fill="#8986FF"/>
<path d="M7.5 2.5C8.11807 2.5 8.72226 2.68328 9.23616 3.02666C9.75006 3.37004 10.1506 3.8581 10.3871 4.42911C10.6236 5.00013 10.6855 5.62847 10.565 6.23466C10.4444 6.84085 10.1467 7.39767 9.70971 7.83471C9.27267 8.27175 8.71585 8.56938 8.10966 8.68995C7.50347 8.81053 6.87514 8.74865 6.30412 8.51212C5.7331 8.2756 5.24504 7.87506 4.90166 7.36116C4.55828 6.84725 4.375 6.24307 4.375 5.625C4.375 4.7962 4.70424 4.00134 5.29029 3.41529C5.87634 2.82924 6.6712 2.5 7.5 2.5ZM7.5 1.25C6.63471 1.25 5.78885 1.50659 5.06938 1.98732C4.34992 2.46805 3.78916 3.15133 3.45803 3.95076C3.1269 4.75019 3.04026 5.62985 3.20907 6.47852C3.37788 7.32719 3.79456 8.10674 4.40641 8.71859C5.01826 9.33045 5.79782 9.74712 6.64648 9.91594C7.49515 10.0847 8.37482 9.99811 9.17424 9.66697C9.97367 9.33584 10.657 8.77508 11.1377 8.05562C11.6184 7.33615 11.875 6.49029 11.875 5.625C11.875 4.46468 11.4141 3.35188 10.5936 2.53141C9.77312 1.71094 8.66032 1.25 7.5 1.25Z" fill="#8986FF"/>
</svg>
