<svg width="16" height="16" viewBox="0 0 16 16" fill="none" xmlns="http://www.w3.org/2000/svg">
<path d="M6.09739 8.19555C5.84729 7.94545 5.70679 7.60624 5.70679 7.25255C5.70679 6.89886 5.84729 6.55965 6.09739 6.30955C6.34749 6.05945 6.6867 5.91895 7.04039 5.91895C7.39408 5.91895 7.73329 6.05945 7.98339 6.30955L8.00006 6.32688L8.01672 6.30955C8.14056 6.18571 8.28758 6.08748 8.44938 6.02046C8.61118 5.95344 8.78459 5.91895 8.95972 5.91895C9.13486 5.91895 9.30827 5.95344 9.47007 6.02046C9.63187 6.08748 9.77889 6.18571 9.90272 6.30955C10.0266 6.43339 10.1248 6.5804 10.1918 6.7422C10.2588 6.904 10.2933 7.07742 10.2933 7.25255C10.2933 7.42768 10.2588 7.6011 10.1918 7.7629C10.1248 7.9247 10.0266 8.07171 9.90272 8.19555L8.01672 10.0809L8.00006 10.0642L7.98339 10.0809L6.09739 8.19555Z" fill="#8986FF" fill-opacity="0.8"/>
<path fill-rule="evenodd" clip-rule="evenodd" d="M2 2.66699C2 2.13656 2.21071 1.62785 2.58579 1.25278C2.96086 0.877706 3.46957 0.666992 4 0.666992H12C12.5304 0.666992 13.0391 0.877706 13.4142 1.25278C13.7893 1.62785 14 2.13656 14 2.66699V13.3337C14 13.8641 13.7893 14.3728 13.4142 14.7479C13.0391 15.1229 12.5304 15.3337 12 15.3337H4C3.46957 15.3337 2.96086 15.1229 2.58579 14.7479C2.21071 14.3728 2 13.8641 2 13.3337V2.66699ZM4 2.00033H12C12.1768 2.00033 12.3464 2.07056 12.4714 2.19559C12.5964 2.32061 12.6667 2.49018 12.6667 2.66699V13.3337C12.6667 13.5105 12.5964 13.68 12.4714 13.8051C12.3464 13.9301 12.1768 14.0003 12 14.0003H4C3.82319 14.0003 3.65362 13.9301 3.5286 13.8051C3.40357 13.68 3.33333 13.5105 3.33333 13.3337V2.66699C3.33333 2.49018 3.40357 2.32061 3.5286 2.19559C3.65362 2.07056 3.82319 2.00033 4 2.00033Z" fill="#8986FF" fill-opacity="0.8"/>
</svg>
