<svg width="25" height="25" viewBox="0 0 25 25" fill="none" xmlns="http://www.w3.org/2000/svg">
<path d="M24.375 23.1378L17.767 16.5298C19.3549 14.6234 20.1468 12.1782 19.9778 9.70293C19.8088 7.22761 18.6921 4.91273 16.8598 3.23984C15.0276 1.56695 12.6209 0.66485 10.1404 0.72121C7.66001 0.77757 5.29679 1.78805 3.5424 3.54243C1.78802 5.29682 0.77754 7.66004 0.721179 10.1405C0.664819 12.6209 1.56692 15.0276 3.23981 16.8598C4.9127 18.6921 7.22758 19.8089 9.7029 19.9778C12.1782 20.1468 14.6234 19.355 16.5297 17.767L23.1377 24.375L24.375 23.1378ZM2.49998 10.375C2.49998 8.81748 2.96184 7.29493 3.82716 5.99989C4.69247 4.70486 5.92238 3.6955 7.36135 3.09946C8.80032 2.50342 10.3837 2.34747 11.9113 2.65133C13.4389 2.95518 14.8421 3.70521 15.9434 4.80654C17.0448 5.90788 17.7948 7.31107 18.0987 8.83867C18.4025 10.3663 18.2466 11.9497 17.6505 13.3886C17.0545 14.8276 16.0451 16.0575 14.7501 16.9228C13.4551 17.7882 11.9325 18.25 10.375 18.25C8.28711 18.2477 6.28542 17.4173 4.80907 15.9409C3.33272 14.4646 2.5023 12.4629 2.49998 10.375Z" fill="black"/>
</svg>
